<svg xmlns="http://www.w3.org/2000/svg" width="294.66" height="145.391" viewBox="0 0 276.244 136.304"><g style="line-height:125%" font-weight="500" font-size="40" font-family="OCRA" letter-spacing="0" word-spacing="0"><path d="M10.58 106.736c-1.32.2-2.48.8-3.4 1.76-.2.16-1.08 1.32-3 3.72-1.48 1.92-2.76 3.64-2.88 3.8-.68 1-1.12 2.24-1.24 3.52-.08.52-.08 11.16 0 11.64.2 1.76 1.2 3.32 2.68 4.28.52.32 1.2.56 1.8.72.6.12.56.12 4.92.12 3.84 0 4.04 0 4.4-.04 1.92-.24 3.6-1.44 4.44-3.16.28-.64.48-1.2.56-1.84.04-.36.04-.56.04-4.4v-4.04h-3.88c-4.16 0-4 0-4.36.12-.28.08-.44.2-.68.44-.24.28-.36.4-.48.72-.12.44-.12.84.04 1.24.08.32.2.48.44.72s.4.36.68.44c.32.12.36.12 2.44.12h1.96v2.16c0 2.36 0 2.2-.2 2.6-.16.4-.48.72-.88.88-.4.2-.04.2-4.52.2-4.52 0-4.12 0-4.52-.2-.52-.24-.88-.68-1.04-1.24-.04-.16-.04-.4-.04-5.68v-5.56l.04-.24c.12-.56.32-1.04.6-1.44.08-.08 1.32-1.72 2.76-3.56 2.88-3.72 2.76-3.6 3.2-3.8.4-.2.12-.2 3.68-.2 3.44 0 3.2 0 3.56-.16.72-.28 1.16-1 1.16-1.76 0-.92-.64-1.72-1.56-1.88-.12-.04-.68-.04-3.28-.04-2.84 0-3.12 0-3.44.04zM28.614 121.496v14.8h8.56c7.24 0 8.56 0 8.72-.04a1.89 1.89 0 0 0 1.56-1.88c0-.92-.64-1.72-1.56-1.88-.12-.04-1.2-.04-6.8-.04h-6.68v-9.04h3c3.32-.04 3.04 0 3.48-.2.36-.2.64-.48.84-.88.16-.32.2-.48.2-.84s-.04-.52-.2-.84c-.2-.4-.48-.68-.84-.88-.44-.2-.16-.2-3.48-.2h-3v-9.04h6.68c5.6 0 6.68 0 6.8-.04a1.89 1.89 0 0 0 1.56-1.88c0-.92-.64-1.72-1.56-1.88-.16-.04-1.48-.04-8.72-.04h-8.56v14.8zM57.208 121.496v14.8h8.56c7.24 0 8.56 0 8.72-.04a1.89 1.89 0 0 0 1.56-1.88c0-.92-.64-1.72-1.56-1.88-.12-.04-1.2-.04-6.8-.04h-6.68v-9.04h3c3.32-.04 3.04 0 3.48-.2.36-.2.64-.48.84-.88.16-.32.2-.48.2-.84s-.04-.52-.2-.84c-.2-.4-.48-.68-.84-.88-.44-.2-.16-.2-3.48-.2h-3v-9.04h6.68c5.6 0 6.68 0 6.8-.04a1.89 1.89 0 0 0 1.56-1.88c0-.92-.64-1.72-1.56-1.88-.16-.04-1.48-.04-8.72-.04h-8.56v14.8zM87.361 106.736c-.44.08-.68.24-1 .56-.32.32-.44.56-.56 1-.04.28-.04 26.16 0 26.4.12.44.24.72.56 1.04.24.24.44.36.68.44.52.2 1 .16 1.52-.08.36-.2.64-.48.84-.88.24-.44.2.08.2-5l.04-4.52 5.92 5.04c3.24 2.8 6 5.12 6.08 5.2.76.52 1.72.48 2.4-.16.4-.36.6-.84.6-1.4 0-.52-.2-1-.6-1.4-.04-.04-3.12-2.68-6.76-5.8-3.64-3.12-6.64-5.68-6.64-5.68s3-2.56 6.64-5.68c3.64-3.12 6.72-5.72 6.76-5.8.64-.56.8-1.44.44-2.2-.2-.44-.6-.8-1.08-1-.6-.2-1.24-.12-1.76.28-.08.04-2.84 2.36-6.08 5.16l-5.92 5.08-.04-4.52c0-5.08.04-4.6-.2-5.04-.2-.4-.48-.68-.84-.88-.12-.04-.28-.12-.36-.12-.2-.08-.64-.08-.84-.04zM114.395 120.616c0 15.08-.04 14.04.12 14.44.08.24.2.4.44.68.24.24.44.36.68.44.52.2 1 .16 1.52-.08.24-.12.44-.28.64-.52.12-.16.28-.48.36-.72.04-.12.04-.48.04-7.4v-7.24l4.88-.04h4.84l.16-.04c.64-.2 1.12-.64 1.32-1.28.08-.2.08-.24.08-.56 0-.36 0-.4-.08-.6-.2-.64-.68-1.08-1.32-1.28l-.16-.04H118.195v-5.84h6.68c5.6 0 6.68 0 6.8-.04a1.89 1.89 0 0 0 1.56-1.88c0-.92-.64-1.72-1.56-1.88-.16-.04-1.48-.04-8.72-.04h-8.56v13.92zM151.829 106.736c-.4.04-.64.12-.96.24a4.946 4.946 0 0 0-2.68 2.08c-.16.28-4.44 8.8-4.6 9.2-.28.72-.44 1.44-.56 2.24-.04.48-.04 1.52 0 2 .12.84.28 1.56.56 2.24.16.4 4.44 8.92 4.6 9.2.52.8 1.2 1.44 2.04 1.84 1.92.96 4.24.56 5.76-1 .28-.28.48-.6.68-.92.08-.12 1.12-2.2 2.32-4.56 2.24-4.48 2.32-4.68 2.52-5.36.56-1.84.48-3.72-.2-5.52-.12-.28-.68-1.44-2.32-4.68-1.2-2.4-2.24-4.44-2.32-4.6-.88-1.52-2.56-2.44-4.28-2.44-.2 0-.44.04-.56.04zm.84 3.84c.24.04.4.16.56.32.12.12.16.2 1.32 2.52l2.16 4.32c.84 1.6.96 1.92 1.08 2.2.12.44.2.76.24 1.2.04.64-.04 1.28-.24 1.92-.12.28-.24.6-1.08 2.2l-2.16 4.32c-1.16 2.32-1.2 2.4-1.32 2.56-.32.28-.68.4-1.08.28a.94.94 0 0 1-.56-.28c-.12-.16-.16-.24-2.24-4.4-1.16-2.32-2.16-4.36-2.2-4.48-.12-.24-.24-.68-.28-1-.08-.32-.08-1.16 0-1.52.04-.32.16-.76.28-1 .04-.12 1.04-2.12 2.2-4.48 1.96-4 2.12-4.24 2.24-4.36.28-.32.68-.4 1.08-.32zM171.583 120.616c0 15.08-.04 14.04.12 14.44.08.24.2.4.44.68.24.24.44.36.68.44.52.2 1 .16 1.52-.08.24-.12.44-.28.64-.52.12-.16.28-.48.36-.72.04-.12.04-.48.04-7.4v-7.24h2.64l4.32 7.36 4.48 7.64c.08.16.2.36.28.44.76.8 1.96.84 2.72.12.6-.52.76-1.32.48-2.08 0-.08-1.8-3.16-3.92-6.8l-3.92-6.68h1.4c1.52-.04 1.64-.04 2.24-.2 2.04-.52 3.68-2.12 4.16-4.16.16-.64.16-.68.2-2.24 0-1.2 0-1.52-.04-1.76-.28-2.4-2-4.4-4.32-4.96-.72-.2-.04-.16-7.68-.2h-6.84v13.92zm13.6-10.04c.56.2 1 .56 1.24 1.04.2.4.2.36.2 1.84s0 1.44-.2 1.8c-.16.4-.48.72-.88.92-.44.2.08.16-5.32.2h-4.84v-5.84h4.84c4.56 0 4.84 0 4.96.04zM210.736 106.736c-1.32.2-2.48.8-3.4 1.76-.2.16-1.08 1.32-3 3.72-1.48 1.92-2.76 3.64-2.88 3.8-.68 1-1.12 2.24-1.24 3.52-.08.52-.08 11.16 0 11.64.2 1.76 1.2 3.32 2.68 4.28.52.32 1.2.56 1.8.72.6.12.56.12 4.92.12 3.84 0 4.04 0 4.4-.04 1.92-.24 3.6-1.44 4.44-3.16.28-.64.48-1.2.56-1.84.04-.36.04-.56.04-4.4v-4.04h-3.88c-4.16 0-4 0-4.36.12-.28.08-.44.2-.68.44-.24.28-.36.4-.48.72-.12.44-.12.84.04 1.24.08.32.2.48.44.72s.4.36.68.44c.32.12.36.12 2.44.12h1.96v2.16c0 2.36 0 2.2-.2 2.6-.16.4-.48.72-.88.88-.4.2-.04.2-4.52.2-4.52 0-4.12 0-4.52-.2-.52-.24-.88-.68-1.04-1.24-.04-.16-.04-.4-.04-5.68v-5.56l.04-.24c.12-.56.32-1.04.6-1.44.08-.08 1.32-1.72 2.76-3.56 2.88-3.72 2.76-3.6 3.2-3.8.4-.2.12-.2 3.68-.2 3.44 0 3.2 0 3.56-.16.72-.28 1.16-1 1.16-1.76 0-.92-.64-1.72-1.56-1.88-.12-.04-.68-.04-3.28-.04-2.84 0-3.12 0-3.44.04zM228.77 121.496v14.8h8.56c7.24 0 8.56 0 8.72-.04a1.89 1.89 0 0 0 1.56-1.88c0-.92-.64-1.72-1.56-1.88-.12-.04-1.2-.04-6.8-.04h-6.68v-9.04h3c3.32-.04 3.04 0 3.48-.2.36-.2.64-.48.84-.88.16-.32.2-.48.2-.84s-.04-.52-.2-.84c-.2-.4-.48-.68-.84-.88-.44-.2-.16-.2-3.48-.2h-3v-9.04h6.68c5.6 0 6.68 0 6.8-.04a1.89 1.89 0 0 0 1.56-1.88c0-.92-.64-1.72-1.56-1.88-.16-.04-1.48-.04-8.72-.04h-8.56v14.8zM258.964 106.736c-.64.12-1.2.52-1.44 1.08-.24.52-.24 1.12 0 1.6.2.48.68.88 1.24 1.04.16.08.2.08 1.24.08h1.12v21.92h-1.12c-1.04.04-1.08.04-1.24.08-.88.24-1.4.96-1.4 1.84 0 .88.52 1.6 1.4 1.84l.16.08h3.84c3.72 0 3.88 0 4.24-.04 1.08-.16 2.08-.56 2.92-1.24.44-.4.96-.92 1.24-1.44.08-.12 1.08-2.08 2.24-4.36 2.32-4.6 2.36-4.68 2.6-5.64.16-.72.24-1.24.24-2.08 0-.84-.08-1.36-.24-2.08-.24-.96-.28-1.04-2.6-5.64-1.16-2.28-2.16-4.2-2.2-4.32-.92-1.52-2.52-2.52-4.28-2.72-.28-.04-.84-.04-4.08-.04-2.08 0-3.84.04-3.88.04zm7.8 3.84c.4.12.8.4 1.04.68.12.16.36.64 3.32 6.52.8 1.56.92 1.88 1.04 2.16.2.68.28 1.28.24 1.92-.04.48-.12.76-.24 1.2-.12.28-.24.6-1.04 2.16-2.96 5.88-3.2 6.36-3.32 6.52-.16.2-.44.4-.68.52-.36.2-.4.2-1.32.2h-.88v-21.92h.88c.68 0 .84.04.96.04z" style="-inkscape-font-specification:'OCRA Medium'"/></g><g style="line-height:125%" font-weight="500" font-size="90" font-family="OCRA" letter-spacing="0" word-spacing="0"><path d="M108.541 8.281c-2.97.45-5.58 1.8-7.65 3.96-.45.36-2.43 2.97-6.75 8.37-3.33 4.32-6.21 8.19-6.48 8.55-1.53 2.25-2.52 5.04-2.79 7.92-.18 1.17-.18 25.11 0 26.19.45 3.96 2.7 7.47 6.03 9.63 1.17.72 2.7 1.26 4.05 1.62 1.35.27 1.26.27 11.07.27 8.64 0 9.09 0 9.9-.09 4.32-.54 8.1-3.24 9.99-7.11.63-1.44 1.08-2.7 1.26-4.14.09-.81.09-1.26.09-9.9v-9.09h-8.73c-9.36 0-9 0-9.81.27-.63.18-.99.45-1.53.99-.54.63-.81.9-1.08 1.62-.27.99-.27 1.89.09 2.79.18.72.45 1.08.99 1.62s.9.81 1.53.99c.72.27.81.27 5.49.27h4.41v4.86c0 5.31 0 4.95-.45 5.85-.36.9-1.08 1.62-1.98 1.98-.9.45-.09.45-10.17.45-10.17 0-9.27 0-10.17-.45-1.17-.54-1.98-1.53-2.34-2.79-.09-.36-.09-.9-.09-12.78v-12.51l.09-.54c.27-1.26.72-2.34 1.35-3.24.18-.18 2.97-3.87 6.21-8.01 6.48-8.37 6.21-8.1 7.2-8.55.9-.45.27-.45 8.28-.45 7.74 0 7.2 0 8.01-.36 1.62-.63 2.61-2.25 2.61-3.96 0-2.07-1.44-3.87-3.51-4.23-.27-.09-1.53-.09-7.38-.09-6.39 0-7.02 0-7.74.09zM149.117 39.511c0 33.93-.09 31.59.27 32.49.18.54.45.9.99 1.53.54.54.99.81 1.53.99 1.17.45 2.25.36 3.42-.18.54-.27.99-.63 1.44-1.17.27-.36.63-1.08.81-1.62.09-.27.09-1.08.09-16.65v-16.29l10.98-.09h10.89l.36-.09c1.44-.45 2.52-1.44 2.97-2.88.18-.45.18-.54.18-1.26 0-.81 0-.9-.18-1.35-.45-1.44-1.53-2.43-2.97-2.88l-.36-.09h-21.87v-13.14h15.03c12.6 0 15.03 0 15.3-.09 2.07-.36 3.51-2.16 3.51-4.23 0-2.07-1.44-3.87-3.51-4.23-.36-.09-3.33-.09-19.62-.09h-19.26v31.32z" style="-inkscape-font-specification:'OCRA Medium'"/></g><g stroke="#000" fill="none" stroke-width="3" stroke-linecap="round" stroke-linejoin="round"><path d="M136.13 81.5h3.984M147.309 81.5h39.917M89.018 81.5h39.917"/></g><g fill="none" stroke="#1a1a1a" stroke-width="3" stroke-linecap="round" stroke-linejoin="round"><path d="M136.13 1.5h3.984M147.309 1.5h39.917M89.018 1.5h39.917"/></g></svg>