<?xml version='1.0' encoding='UTF-8' standalone='no'?>
<!-- Created with Fritzing (http://www.fritzing.org/) -->
<svg xmlns:svg='http://www.w3.org/2000/svg' xmlns='http://www.w3.org/2000/svg' version='1.2' baseProfile='tiny' x='0in' y='0in' width='3.23388in' height='1.543in' viewBox='0 0 232.839 111.096' >
<g partID='58400'><g transform='translate(225.9,0)' ><g transform='matrix(0,1,-1,0,0,0)'  ><g id="schematic">
<rect height="135.9" fill="#FFFFFF" x="14.85" y="14.85" width="78.3" class="interior rect" stroke="#000000" stroke-width="0.9" stroke-linecap="round"/>
<line fill="none" id="connector61pin" y1="28.8" y2="28.8" class="pin" x1="93.2499" x2="107.65" stroke="#787878" stroke-width="0.699999" stroke-linecap="round"/>
<text fill="#8c8c8c" x="91.8499" y="29.4999" font-family="'Droid Sans'" class="text" stroke="none" stroke-width="0" font-size="3.49999" text-anchor="end">D0/RX</text>
<g height="0.699999" fill="none" x="107.65" y="28.4499" id="connector61terminal" width="0.699999" class="terminal" stroke="none" stroke-width="0"/>
<line fill="none" id="connector62pin" y1="36" y2="36" class="pin" x1="93.2499" x2="107.65" stroke="#787878" stroke-width="0.699999" stroke-linecap="round"/>
<text fill="#8c8c8c" x="91.8499" y="36.6999" font-family="'Droid Sans'" class="text" stroke="none" stroke-width="0" font-size="3.49999" text-anchor="end">D1/TX</text>
<g height="0.699999" fill="none" x="107.65" y="35.6499" id="connector62terminal" width="0.699999" class="terminal" stroke="none" stroke-width="0"/>
<line fill="none" id="connector63pin" y1="43.2" y2="43.2" class="pin" x1="93.2499" x2="107.65" stroke="#787878" stroke-width="0.699999" stroke-linecap="round"/>
<text fill="#8c8c8c" x="91.8499" y="43.8999" font-family="'Droid Sans'" class="text" stroke="none" stroke-width="0" font-size="3.49999" text-anchor="end">D2</text>
<g height="0.699999" fill="none" x="107.65" y="42.8499" id="connector63terminal" width="0.699999" class="terminal" stroke="none" stroke-width="0"/>
<line fill="none" id="connector64pin" y1="50.4" y2="50.4" class="pin" x1="93.2499" x2="107.65" stroke="#787878" stroke-width="0.699999" stroke-linecap="round"/>
<text fill="#8c8c8c" x="91.8499" y="51.0999" font-family="'Droid Sans'" class="text" stroke="none" stroke-width="0" font-size="3.49999" text-anchor="end">D3 PWM</text>
<g height="0.699999" fill="none" x="107.65" y="50.0499" id="connector64terminal" width="0.699999" class="terminal" stroke="none" stroke-width="0"/>
<line fill="none" id="connector65pin" y1="57.6" y2="57.6" class="pin" x1="93.2499" x2="107.65" stroke="#787878" stroke-width="0.699999" stroke-linecap="round"/>
<text fill="#8c8c8c" x="91.8499" y="58.2999" font-family="'Droid Sans'" class="text" stroke="none" stroke-width="0" font-size="3.49999" text-anchor="end">D4</text>
<g height="0.699999" fill="none" x="107.65" y="57.2499" id="connector65terminal" width="0.699999" class="terminal" stroke="none" stroke-width="0"/>
<line fill="none" id="connector66pin" y1="64.8" y2="64.8" class="pin" x1="93.2499" x2="107.65" stroke="#787878" stroke-width="0.699999" stroke-linecap="round"/>
<text fill="#8c8c8c" x="91.8499" y="65.4999" font-family="'Droid Sans'" class="text" stroke="none" stroke-width="0" font-size="3.49999" text-anchor="end">D5 PWM</text>
<g height="0.699999" fill="none" x="107.65" y="64.4499" id="connector66terminal" width="0.699999" class="terminal" stroke="none" stroke-width="0"/>
<line fill="none" id="connector67pin" y1="72" y2="72" class="pin" x1="93.2499" x2="107.65" stroke="#787878" stroke-width="0.699999" stroke-linecap="round"/>
<text fill="#8c8c8c" x="91.8499" y="72.6999" font-family="'Droid Sans'" class="text" stroke="none" stroke-width="0" font-size="3.49999" text-anchor="end">D6 PWM</text>
<g height="0.699999" fill="none" x="107.65" y="71.6499" id="connector67terminal" width="0.699999" class="terminal" stroke="none" stroke-width="0"/>
<line fill="none" id="connector68pin" y1="79.2" y2="79.2" class="pin" x1="93.2499" x2="107.65" stroke="#787878" stroke-width="0.699999" stroke-linecap="round"/>
<text fill="#8c8c8c" x="91.8499" y="79.8999" font-family="'Droid Sans'" class="text" stroke="none" stroke-width="0" font-size="3.49999" text-anchor="end">D7</text>
<g height="0.699999" fill="none" x="107.65" y="78.8499" id="connector68terminal" width="0.699999" class="terminal" stroke="none" stroke-width="0"/>
<line fill="none" id="connector51pin" y1="86.4" y2="86.4" class="pin" x1="93.2499" x2="107.65" stroke="#787878" stroke-width="0.699999" stroke-linecap="round"/>
<text fill="#8c8c8c" x="91.8499" y="87.0999" font-family="'Droid Sans'" class="text" stroke="none" stroke-width="0" font-size="3.49999" text-anchor="end">D8</text>
<g height="0.699999" fill="none" x="107.65" y="86.0499" id="connector51terminal" width="0.699999" class="terminal" stroke="none" stroke-width="0"/>
<line fill="none" id="connector52pin" y1="93.6" y2="93.6" class="pin" x1="93.2499" x2="107.65" stroke="#787878" stroke-width="0.699999" stroke-linecap="round"/>
<text fill="#8c8c8c" x="91.8499" y="94.2999" font-family="'Droid Sans'" class="text" stroke="none" stroke-width="0" font-size="3.49999" text-anchor="end">D9 PWM</text>
<g height="0.699999" fill="none" x="107.65" y="93.2499" id="connector52terminal" width="0.699999" class="terminal" stroke="none" stroke-width="0"/>
<line fill="none" id="connector53pin" y1="100.8" y2="100.8" class="pin" x1="93.2499" x2="107.65" stroke="#787878" stroke-width="0.699999" stroke-linecap="round"/>
<text fill="#8c8c8c" x="91.8499" y="101.5" font-family="'Droid Sans'" class="text" stroke="none" stroke-width="0" font-size="3.49999" text-anchor="end">D10 PWM/SS</text>
<g height="0.699999" fill="none" x="107.65" y="100.45" id="connector53terminal" width="0.699999" class="terminal" stroke="none" stroke-width="0"/>
<line fill="none" id="connector54pin" y1="108" y2="108" class="pin" x1="93.2499" x2="107.65" stroke="#787878" stroke-width="0.699999" stroke-linecap="round"/>
<text fill="#8c8c8c" x="91.8499" y="108.7" font-family="'Droid Sans'" class="text" stroke="none" stroke-width="0" font-size="3.49999" text-anchor="end">D11 PWM/MOSI</text>
<g height="0.699999" fill="none" x="107.65" y="107.65" id="connector54terminal" width="0.699999" class="terminal" stroke="none" stroke-width="0"/>
<line fill="none" id="connector55pin" y1="115.2" y2="115.2" class="pin" x1="93.2499" x2="107.65" stroke="#787878" stroke-width="0.699999" stroke-linecap="round"/>
<text fill="#8c8c8c" x="91.8499" y="115.9" font-family="'Droid Sans'" class="text" stroke="none" stroke-width="0" font-size="3.49999" text-anchor="end">D12/MISO</text>
<g height="0.699999" fill="none" x="107.65" y="114.85" id="connector55terminal" width="0.699999" class="terminal" stroke="none" stroke-width="0"/>
<line fill="none" id="connector41pin" y1="122.4" y2="122.4" class="pin" x1="93.2499" x2="107.65" stroke="none" stroke-width="0" stroke-linecap="round"/>
<rect height="0.699999" fill="none" x="107.65" y="122.05" id="connector41terminal" width="0.699999" class="terminal" stroke="none" stroke-width="0"/>
<line fill="none" id="connector56pin" y1="122.4" y2="122.4" class="pin" x1="93.2499" x2="107.65" stroke="#787878" stroke-width="0.699999" stroke-linecap="round"/>
<text fill="#8c8c8c" x="91.8499" y="123.1" font-family="'Droid Sans'" class="text" stroke="none" stroke-width="0" font-size="3.49999" text-anchor="end">D13/SCK</text>
<g height="0.699999" fill="none" x="107.65" y="122.05" id="connector56terminal" width="0.699999" class="terminal" stroke="none" stroke-width="0"/>
<line fill="none" id="connector43pin" y1="28.8" y2="28.8" class="pin" x1="0.349999" x2="14.75" stroke="none" stroke-width="0" stroke-linecap="round"/>
<rect height="0.699999" fill="none" x="-0.349999" y="28.4499" id="connector43terminal" width="0.699999" class="terminal" stroke="none" stroke-width="0"/>
<line fill="none" id="connector85pin" y1="28.8" y2="28.8" class="pin" x1="0.349999" x2="14.75" stroke="#787878" stroke-width="0.699999" stroke-linecap="round"/>
<text fill="#8c8c8c" x="16.15" y="29.4999" font-family="'Droid Sans'" class="text" stroke="none" stroke-width="0" font-size="3.49999" text-anchor="start">RESET</text>
<g height="0.699999" fill="none" x="-0.349999" y="28.4499" id="connector85terminal" width="0.699999" class="terminal" stroke="none" stroke-width="0"/>
<line fill="none" id="connector49pin" y1="36" y2="36" class="pin" x1="0.349999" x2="14.75" stroke="#787878" stroke-width="0.699999" stroke-linecap="round"/>
<text fill="#8c8c8c" x="16.15" y="36.6999" font-family="'Droid Sans'" class="text" stroke="none" stroke-width="0" font-size="3.49999" text-anchor="start">RESET2</text>
<rect height="0.699999" fill="none" x="-0.349999" y="35.6499" id="connector49terminal" width="0.699999" class="terminal" stroke="none" stroke-width="0"/>
<line fill="none" id="connector58pin" y1="43.2" y2="43.2" class="pin" x1="0.349999" x2="14.75" stroke="#787878" stroke-width="0.699999" stroke-linecap="round"/>
<text fill="#8c8c8c" x="16.15" y="43.8999" font-family="'Droid Sans'" class="text" stroke="none" stroke-width="0" font-size="3.49999" text-anchor="start">AREF</text>
<g height="0.699999" fill="none" x="-0.349999" y="42.8499" id="connector58terminal" width="0.699999" class="terminal" stroke="none" stroke-width="0"/>
<line fill="none" id="connector84pin" y1="50.4" y2="50.4" class="pin" x1="0.349999" x2="14.75" stroke="#787878" stroke-width="0.699999" stroke-linecap="round"/>
<text fill="#8c8c8c" x="16.15" y="51.0999" font-family="'Droid Sans'" class="text" stroke="none" stroke-width="0" font-size="3.49999" text-anchor="start">ioref</text>
<g height="0.699999" fill="none" x="-0.349999" y="50.0499" id="connector84terminal" width="0.699999" class="terminal" stroke="none" stroke-width="0"/>
<line fill="none" id="connector0pin" y1="64.8" y2="64.8" class="pin" x1="0.349999" x2="14.75" stroke="#787878" stroke-width="0.699999" stroke-linecap="round"/>
<text fill="#8c8c8c" x="16.15" y="65.4999" font-family="'Droid Sans'" class="text" stroke="none" stroke-width="0" font-size="3.49999" text-anchor="start">A0</text>
<g height="0.699999" fill="none" x="-0.349999" y="64.4499" id="connector0terminal" width="0.699999" class="terminal" stroke="none" stroke-width="0"/>
<line fill="none" id="connector1pin" y1="72" y2="72" class="pin" x1="0.349999" x2="14.75" stroke="#787878" stroke-width="0.699999" stroke-linecap="round"/>
<text fill="#8c8c8c" x="16.15" y="72.6999" font-family="'Droid Sans'" class="text" stroke="none" stroke-width="0" font-size="3.49999" text-anchor="start">A1</text>
<g height="0.699999" fill="none" x="-0.349999" y="71.6499" id="connector1terminal" width="0.699999" class="terminal" stroke="none" stroke-width="0"/>
<line fill="none" id="connector2pin" y1="79.2" y2="79.2" class="pin" x1="0.349999" x2="14.75" stroke="#787878" stroke-width="0.699999" stroke-linecap="round"/>
<text fill="#8c8c8c" x="16.15" y="79.8999" font-family="'Droid Sans'" class="text" stroke="none" stroke-width="0" font-size="3.49999" text-anchor="start">A2</text>
<g height="0.699999" fill="none" x="-0.349999" y="78.8499" id="connector2terminal" width="0.699999" class="terminal" stroke="none" stroke-width="0"/>
<line fill="none" id="connector3pin" y1="86.4" y2="86.4" class="pin" x1="0.349999" x2="14.75" stroke="#787878" stroke-width="0.699999" stroke-linecap="round"/>
<text fill="#8c8c8c" x="16.15" y="87.0999" font-family="'Droid Sans'" class="text" stroke="none" stroke-width="0" font-size="3.49999" text-anchor="start">A3</text>
<g height="0.699999" fill="none" x="-0.349999" y="86.0499" id="connector3terminal" width="0.699999" class="terminal" stroke="none" stroke-width="0"/>
<line fill="none" id="connector48pin" y1="93.6" y2="93.6" class="pin" x1="0.349999" x2="14.75" stroke="none" stroke-width="0" stroke-linecap="round"/>
<rect height="0.699999" fill="none" x="-0.349999" y="93.2499" id="connector48terminal" width="0.699999" class="terminal" stroke="none" stroke-width="0"/>
<line fill="none" id="connector45pin" y1="93.6" y2="93.6" class="pin" x1="0.349999" x2="14.75" stroke="none" stroke-width="0" stroke-linecap="round"/>
<rect height="0.699999" fill="none" x="-0.349999" y="93.2499" id="connector45terminal" width="0.699999" class="terminal" stroke="none" stroke-width="0"/>
<line fill="none" id="connector4pin" y1="93.6" y2="93.6" class="pin" x1="0.349999" x2="14.75" stroke="none" stroke-width="0" stroke-linecap="round"/>
<g height="0.699999" fill="none" x="-0.349999" y="93.2499" id="connector4terminal" width="0.699999" class="terminal" stroke="none" stroke-width="0"/>
<line fill="none" id="connector39pin" y1="93.6" y2="93.6" class="pin" x1="0.349999" x2="14.75" stroke="none" stroke-width="0" stroke-linecap="round"/>
<rect height="0.699999" fill="none" x="-0.349999" y="93.2499" id="connector39terminal" width="0.699999" class="terminal" stroke="none" stroke-width="0"/>
<line fill="none" id="connector47pin" y1="93.6" y2="93.6" class="pin" x1="0.349999" x2="14.75" stroke="none" stroke-width="0" stroke-linecap="round"/>
<rect height="0.699999" fill="none" x="-0.349999" y="93.2499" id="connector47terminal" width="0.699999" class="terminal" stroke="none" stroke-width="0"/>
<line fill="none" id="connector42pin" y1="93.6" y2="93.6" class="pin" x1="0.349999" x2="14.75" stroke="none" stroke-width="0" stroke-linecap="round"/>
<rect height="0.699999" fill="none" x="-0.349999" y="93.2499" id="connector42terminal" width="0.699999" class="terminal" stroke="none" stroke-width="0"/>
<line fill="none" id="connector59pin" y1="93.6" y2="93.6" class="pin" x1="0.349999" x2="14.75" stroke="#787878" stroke-width="0.699999" stroke-linecap="round"/>
<text fill="#8c8c8c" x="16.15" y="94.2999" font-family="'Droid Sans'" class="text" stroke="none" stroke-width="0" font-size="3.49999" text-anchor="start">A4/SDA</text>
<g height="0.699999" fill="none" x="-0.349999" y="93.2499" id="connector59terminal" width="0.699999" class="terminal" stroke="none" stroke-width="0"/>
<line fill="none" id="connector5pin" y1="100.8" y2="100.8" class="pin" x1="0.349999" x2="14.75" stroke="none" stroke-width="0" stroke-linecap="round"/>
<g height="0.699999" fill="none" x="-0.349999" y="100.45" id="connector5terminal" width="0.699999" class="terminal" stroke="none" stroke-width="0"/>
<line fill="none" id="connector60pin" y1="100.8" y2="100.8" class="pin" x1="0.349999" x2="14.75" stroke="#787878" stroke-width="0.699999" stroke-linecap="round"/>
<text fill="#8c8c8c" x="16.15" y="101.5" font-family="'Droid Sans'" class="text" stroke="none" stroke-width="0" font-size="3.49999" text-anchor="start">A5/SCL</text>
<g height="0.699999" fill="none" x="-0.349999" y="100.45" id="connector60terminal" width="0.699999" class="terminal" stroke="none" stroke-width="0"/>
<line fill="none" id="connector91pin" y1="136.8" y2="136.8" class="pin" x1="0.349999" x2="14.75" stroke="#787878" stroke-width="0.699999" stroke-linecap="round"/>
<text fill="#8c8c8c" x="16.15" y="137.5" font-family="'Droid Sans'" class="text" stroke="none" stroke-width="0" font-size="3.49999" text-anchor="start">N/C</text>
<g height="0.699999" fill="none" x="-0.349999" y="136.45" id="connector91terminal" width="0.699999" class="terminal" stroke="none" stroke-width="0"/>
<line fill="none" id="connector88pin" y1="150.85" y2="165.25" class="pin" x1="57.6" x2="57.6" stroke="none" stroke-width="0" stroke-linecap="round"/>
<g height="0.699999" fill="none" x="57.2499" y="165.25" id="connector88terminal" width="0.699999" class="terminal" stroke="none" stroke-width="0"/>
<line fill="none" id="connector57pin" y1="150.85" y2="165.25" class="pin" x1="57.6" x2="57.6" stroke="none" stroke-width="0" stroke-linecap="round"/>
<g height="0.699999" fill="none" x="57.2499" y="165.25" id="connector57terminal" width="0.699999" class="terminal" stroke="none" stroke-width="0"/>
<line fill="none" id="connector44pin" y1="150.85" y2="165.25" class="pin" x1="57.6" x2="57.6" stroke="none" stroke-width="0" stroke-linecap="round"/>
<rect height="0.699999" fill="none" x="57.2499" y="165.25" id="connector44terminal" width="0.699999" class="terminal" stroke="none" stroke-width="0"/>
<line fill="none" id="connector50pin" y1="150.85" y2="165.25" class="pin" x1="57.6" x2="57.6" stroke="none" stroke-width="0" stroke-linecap="round"/>
<rect height="0.699999" fill="none" x="57.2499" y="165.25" id="connector50terminal" width="0.699999" class="terminal" stroke="none" stroke-width="0"/>
<line fill="none" id="connector89pin" y1="150.85" y2="165.25" class="pin" x1="57.6" x2="57.6" stroke="#787878" stroke-width="0.699999" stroke-linecap="round"/>
<g transform="matrix(1, 0, 0, 1, 58.2999, 149.45)">
<g>
<g transform="rotate(270)">
<g>
<text fill="#8c8c8c" x="0" y="0" font-family="'Droid Sans'" class="text" stroke="none" stroke-width="0" font-size="3.49999" text-anchor="start">GND</text>
</g>
</g>
</g>
</g>
<g height="0.699999" fill="none" x="57.2499" y="165.25" id="connector89terminal" width="0.699999" class="terminal" stroke="none" stroke-width="0"/>
<line fill="none" id="connector86pin" y1="0.349999" y2="14.75" class="pin" x1="36" x2="36" stroke="#787878" stroke-width="0.699999" stroke-linecap="round"/>
<g transform="matrix(1, 0, 0, 1, 36.6999, 16.15)">
<g>
<g transform="rotate(270)">
<g>
<text fill="#8c8c8c" x="0" y="0" font-family="'Droid Sans'" class="text" stroke="none" stroke-width="0" font-size="3.49999" text-anchor="end">3V3</text>
</g>
</g>
</g>
</g>
<g height="0.699999" fill="none" x="35.6499" y="-0.349999" id="connector86terminal" width="0.699999" class="terminal" stroke="none" stroke-width="0"/>
<line fill="none" id="connector40pin" y1="0.349999" y2="14.75" class="pin" x1="50.4" x2="50.4" stroke="none" stroke-width="0" stroke-linecap="round"/>
<rect height="0.699999" fill="none" x="50.0499" y="-0.349999" id="connector40terminal" width="0.699999" class="terminal" stroke="none" stroke-width="0"/>
<line fill="none" id="connector46pin" y1="0.349999" y2="14.75" class="pin" x1="50.4" x2="50.4" stroke="none" stroke-width="0" stroke-linecap="round"/>
<rect height="0.699999" fill="none" x="50.0499" y="-0.349999" id="connector46terminal" width="0.699999" class="terminal" stroke="none" stroke-width="0"/>
<line fill="none" id="connector87pin" y1="0.349999" y2="14.75" class="pin" x1="50.4" x2="50.4" stroke="#787878" stroke-width="0.699999" stroke-linecap="round"/>
<g transform="matrix(1, 0, 0, 1, 51.0999, 16.15)">
<g>
<g transform="rotate(270)">
<g>
<text fill="#8c8c8c" x="0" y="0" font-family="'Droid Sans'" class="text" stroke="none" stroke-width="0" font-size="3.49999" text-anchor="end">5V</text>
</g>
</g>
</g>
</g>
<g height="0.699999" fill="none" x="50.0499" y="-0.349999" id="connector87terminal" width="0.699999" class="terminal" stroke="none" stroke-width="0"/>
<line fill="none" id="connector90pin" y1="0.349999" y2="14.75" class="pin" x1="64.8" x2="64.8" stroke="#787878" stroke-width="0.699999" stroke-linecap="round"/>
<g transform="matrix(1, 0, 0, 1, 65.4999, 16.15)">
<g>
<g transform="rotate(270)">
<g>
<text fill="#8c8c8c" x="0" y="0" font-family="'Droid Sans'" class="text" stroke="none" stroke-width="0" font-size="3.49999" text-anchor="end">VIN</text>
</g>
</g>
</g>
</g>
<g height="0.699999" fill="none" x="64.4499" y="-0.349999" id="connector90terminal" width="0.699999" class="terminal" stroke="none" stroke-width="0"/>
<text fill="#000000" x="54.4501" y="76.4498" id="label" font-family="'Droid Sans'" class="text" stroke="none" stroke-width="0" font-size="4.25001" text-anchor="middle">Arduino</text>
<text fill="#000000" x="54.4501" y="80.9833" id="label" font-family="'Droid Sans'" class="text" stroke="none" stroke-width="0" font-size="4.25001" text-anchor="middle">Uno</text>
<text fill="#000000" x="54.4501" y="85.5167" id="label" font-family="'Droid Sans'" class="text" stroke="none" stroke-width="0" font-size="4.25001" text-anchor="middle">(Rev3)</text>
</g>
</g></g></g><g partID='74640'><g transform='translate(9.55036,104.904)' ><g id="schematic" xmlns="http://www.w3.org/2000/svg">
<line y1="3.096" y2="0.216" class="other" x1="7.55002" x2="8.63003" xmlns="http://www.w3.org/2000/svg" stroke="#000000" stroke-width="0.432002" stroke-linecap="round"/>
<line y1="0.216" y2="5.976" class="other" x1="8.63003" x2="10.43" xmlns="http://www.w3.org/2000/svg" stroke="#000000" stroke-width="0.432002" stroke-linecap="round"/>
<line y1="5.976" y2="0.216" class="other" x1="10.43" x2="12.23" xmlns="http://www.w3.org/2000/svg" stroke="#000000" stroke-width="0.432002" stroke-linecap="round"/>
<line y1="0.216" y2="5.976" class="other" x1="12.23" x2="14.03" xmlns="http://www.w3.org/2000/svg" stroke="#000000" stroke-width="0.432002" stroke-linecap="round"/>
<line y1="5.976" y2="0.216" class="other" x1="14.03" x2="15.8301" xmlns="http://www.w3.org/2000/svg" stroke="#000000" stroke-width="0.432002" stroke-linecap="round"/>
<line y1="0.216" y2="5.976" class="other" x1="15.8301" x2="17.6301" xmlns="http://www.w3.org/2000/svg" stroke="#000000" stroke-width="0.432002" stroke-linecap="round"/>
<line y1="5.976" y2="0.216" class="other" x1="17.6301" x2="19.4301" xmlns="http://www.w3.org/2000/svg" stroke="#000000" stroke-width="0.432002" stroke-linecap="round"/>
<line y1="0.216" y2="5.976" class="other" x1="19.4301" x2="21.2301" xmlns="http://www.w3.org/2000/svg" stroke="#000000" stroke-width="0.432002" stroke-linecap="round"/>
<line y1="5.976" y2="3.096" class="other" x1="21.2301" x2="21.9501" xmlns="http://www.w3.org/2000/svg" stroke="#000000" stroke-width="0.432002" stroke-linecap="round"/>
<line id="connector1pin" y1="3.096" y2="3.096" class="pin" connectorname="2" x1="29.1502" x2="21.9501" xmlns="http://www.w3.org/2000/svg" stroke="#787878" stroke-width="0.700001" stroke-linecap="round"/>
<g height="0.000283465" fill="none" x="29.1502" y="3.096" id="connector1terminal" width="0.000283466" class="terminal" xmlns="http://www.w3.org/2000/svg" stroke="none" stroke-width="0"/>
<text fill="#8c8c8c" x="25.5501" y="2.046" font-family="'Droid Sans'" class="text" xmlns="http://www.w3.org/2000/svg" stroke="none" stroke-width="0" font-size="2.50001" text-anchor="middle">2</text>
<line id="connector0pin" y1="3.096" y2="3.096" class="pin" connectorname="1" x1="0.350001" x2="7.55002" xmlns="http://www.w3.org/2000/svg" stroke="#787878" stroke-width="0.700001" stroke-linecap="round"/>
<g height="0.000283465" fill="none" x="0.350001" y="3.096" id="connector0terminal" width="0.000283466" class="terminal" xmlns="http://www.w3.org/2000/svg" stroke="none" stroke-width="0"/>
<text fill="#8c8c8c" x="3.95001" y="2.046" font-family="'Droid Sans'" class="text" xmlns="http://www.w3.org/2000/svg" stroke="none" stroke-width="0" font-size="2.50001" text-anchor="middle">1</text>
</g>
</g></g><g partID='74790'><g transform='translate(0,79.4165)' ><g transform='matrix(1,0,0,-1,0,0)'  ><g id="schematic">
<g>
<path d="M13.5,14.966L9.9,14.966c-0.193,0,-0.35,-0.156,-0.35,-0.35s0.156,-0.35,0.35,-0.35L13.5,14.266c0.193,0,0.35,0.156,0.35,0.35S13.694,14.966,13.5,14.966z"/>
</g>
<g>
<path d="M9.9,14.966L6.3,14.966c-0.193,0,-0.35,-0.156,-0.35,-0.35s0.157,-0.35,0.35,-0.35l3.6,0c0.193,0,0.35,0.156,0.35,0.35S10.093,14.966,9.9,14.966z"/>
</g>
<g>
<polygon fill="#FFFFFF" points="9.9,14.616,6.3,7.416,9.9,7.416,13.5,7.416"/>
<path d="M9.9,15.398L5.734,7.066l8.333,0L9.9,15.398zM6.866,7.766L9.9,13.834l3.034,-6.068L6.866,7.766z"/>
</g>
<g>
<path d="M9.9,14.841c-0.124,0,-0.225,-0.101,-0.225,-0.225l0,-7.2c0,-0.124,0.101,-0.225,0.225,-0.225s0.225,0.101,0.225,0.225l0,7.2C10.124,14.74,10.024,14.841,9.9,14.841z"/>
</g>
<g>
<path d="M1.8,12.141c-0.058,0,-0.115,-0.021,-0.159,-0.065c-0.088,-0.088,-0.088,-0.23,0,-0.318l2.34,-2.341c0.088,-0.088,0.23,-0.088,0.318,0s0.088,0.23,0,0.318l-2.34,2.341C1.915,12.12,1.858,12.141,1.8,12.141z"/>
</g>
<g>
<path d="M2.16,15.381c-0.058,0,-0.115,-0.021,-0.159,-0.065c-0.088,-0.088,-0.088,-0.23,0,-0.318l2.34,-2.34c0.088,-0.088,0.23,-0.088,0.318,0s0.088,0.23,0,0.318l-2.34,2.34C2.276,15.359,2.218,15.381,2.16,15.381z"/>
</g>
<g id="connector0pin">
<path d="M9.9,22.166c-0.193,0,-0.35,-0.156,-0.35,-0.35l0,-7.2c0,-0.193,0.156,-0.35,0.35,-0.35s0.35,0.156,0.35,0.35l0,7.2C10.249,22.01,10.093,22.166,9.9,22.166z" fill="#787878"/>
</g>
<g id="connector0terminal">
<rect height="0.001" fill="none" x="9.9" y="21.816" width="0.001"/>
</g>
<g transform="matrix(1, 0, 0, 1, 3.429, 6.4262)">
<g>
<g transform="rotate(270)">
<g>
<g enable-background="new    ">
<path d="M-11.647,5.54l-0.891,0L-12.538,5.388l0.342,-0.372c0.049,-0.053,0.093,-0.101,0.131,-0.145s0.071,-0.086,0.099,-0.128c0.026,-0.042,0.047,-0.084,0.062,-0.125c0.015,-0.043,0.021,-0.088,0.021,-0.138c0,-0.038,-0.005,-0.072,-0.017,-0.102s-0.027,-0.054,-0.047,-0.075c-0.021,-0.02,-0.045,-0.035,-0.073,-0.046s-0.06,-0.016,-0.094,-0.016c-0.062,0,-0.118,0.013,-0.167,0.038c-0.051,0.024,-0.098,0.057,-0.143,0.096l-0.1,-0.116c0.025,-0.023,0.055,-0.046,0.084,-0.065c0.029,-0.021,0.063,-0.039,0.097,-0.054s0.071,-0.026,0.109,-0.036c0.038,-0.008,0.079,-0.013,0.121,-0.013c0.063,0,0.119,0.009,0.169,0.026c0.051,0.018,0.094,0.043,0.129,0.076c0.035,0.032,0.063,0.072,0.082,0.119c0.019,0.048,0.028,0.101,0.028,0.16c0,0.056,-0.009,0.108,-0.026,0.158c-0.017,0.05,-0.041,0.1,-0.07,0.148c-0.031,0.048,-0.066,0.097,-0.109,0.146c-0.041,0.049,-0.087,0.1,-0.136,0.152L-12.32,5.37l0,0.008l0.673,0L-11.647,5.54z" fill="#787878"/>
</g>
</g>
</g>
</g>
</g>
<g id="connector1pin">
<path d="M9.9,7.766c-0.193,0,-0.35,-0.157,-0.35,-0.35l0,-7.2c0,-0.193,0.156,-0.35,0.35,-0.35s0.35,0.157,0.35,0.35l0,7.2C10.249,7.609,10.093,7.766,9.9,7.766z" fill="#787878"/>
</g>
<g id="connector1terminal">
<polygon fill="none" points="9.9,0.216,9.901,0.216,9.901,0.216"/>
</g>
<g transform="matrix(1, 0, 0, 1, 3.429, 1.3462)">
<g>
<g transform="rotate(270)">
<g>
<g enable-background="new    ">
<path d="M-2.616,5.54l-0.172,0L-2.788,4.648c0,-0.028,0,-0.058,0,-0.09s0.001,-0.063,0.002,-0.095c0.001,-0.032,0.002,-0.063,0.003,-0.092c0.001,-0.028,0.002,-0.054,0.002,-0.076c-0.011,0.012,-0.021,0.021,-0.029,0.03s-0.017,0.017,-0.026,0.024s-0.018,0.016,-0.028,0.025c-0.01,0.008,-0.021,0.019,-0.035,0.03l-0.145,0.118l-0.094,-0.12l0.374,-0.292l0.146,0L-2.618,5.54z" fill="#787878"/>
</g>
</g>
</g>
</g>
</g>
<g>
<path d="M0.18,13.536l1.08,-2.521l1.44,1.438L0.18,13.536z"/>
</g>
<g>
<path d="M0.54,16.776l1.08,-2.521l1.438,1.438L0.54,16.776z"/>
</g>
</g>
</g></g></g><g partID='76540'><line stroke-linecap='round' stroke='#404040' x1='103.501' y1='108' x2='38.7007' y2='108' stroke-width='0.699998' /></g><g partID='76610'><line stroke-linecap='round' stroke='#404040' x1='9.77169' y1='79.191' x2='9.9005' y2='79.2005' stroke-width='0.699998' /></g><g partID='76620'><line stroke-linecap='round' stroke='#404040' x1='9.9005' y1='108' x2='9.77169' y2='79.191' stroke-width='0.699998' /></g><g partID='76670'><line stroke-linecap='round' stroke='#404040' x1='60.3005' y1='57.5999' x2='9.9005' y2='57.6' stroke-width='0.699998' /></g><g partID='58400' id='partLabel'><g transform='translate(214.439,14.201)' ><g font-size='5' font-style='normal' font-weight='normal' fill='#000000' font-family="'DroidSans'" id='schematicLabel' fill-opacity='1' stroke='none' ><text x='0' y='3.75'>Part1</text></g></g></g><g partID='74640' id='partLabel'><g transform='translate(39.0503,93.7039)' ><g font-size='5' font-style='normal' font-weight='normal' fill='#000000' font-family="'DroidSans'" id='schematicLabel' fill-opacity='1' stroke='none' ><text x='0' y='3.75'>R1</text><text x='0' y='8.75'>220&#x3a9;</text></g></g></g><g partID='74790' id='partLabel'><g transform='translate(13.68,46.1855)' ><g font-size='5' font-style='normal' font-weight='normal' fill='#000000' font-family="'DroidSans'" id='schematicLabel' fill-opacity='1' stroke='none' ><text x='0' y='3.75'>LED1</text><text x='0' y='8.75'>Red (633nm)</text></g></g></g></svg>